PathFileType	4	(X/Y/Z)	Walk5.trc
DataRate	CameraRate	NumFrames	NumMarkers	Units	OrigDataRate	OrigDataStartFrame	OrigNumFrames
200.000000	200.000000	4	57	mm	200.000000	274	539
Frame#	Times		RBHD		C7		RASI		RACR1		RUA1		RFA1		LFA1		RTH3		RTH2		RWRU		RCAR		RElbow		RBack		LTH2		RTH1		LElbowM		RTB3		RMT1		RTH4		RMT5		RLFC		RTB1		RTB4		LTH4		RTB2		LACR1		LElbow		LWRU		LTH3		CLAV		LTB1		LPSI		T10		RPSI		RWRR		LTH1		LBHD		LLFC		LTB3		LTB4		RToe		LCAL		RFHD		LTB2		LMMAL		LASI		LWRR		LLMAL		RElbowM		LMT1		LToe		RLMAL		RMMAL		LMT5		LUA1		LCAR		RCAL
			X1	Y1	Z1	X2	Y2	Z2	X3	Y3	Z3	X4	Y4	Z4	X5	Y5	Z5	X6	Y6	Z6	X7	Y7	Z7	X8	Y8	Z8	X9	Y9	Z9	X10	Y10	Z10	X11	Y11	Z11	X12	Y12	Z12	X13	Y13	Z13	X14	Y14	Z14	X15	Y15	Z15	X16	Y16	Z16	X17	Y17	Z17	X18	Y18	Z18	X19	Y19	Z19	X20	Y20	Z20	X21	Y21	Z21	X22	Y22	Z22	X23	Y23	Z23	X24	Y24	Z24	X25	Y25	Z25	X26	Y26	Z26	X27	Y27	Z27	X28	Y28	Z28	X29	Y29	Z29	X30	Y30	Z30	X31	Y31	Z31	X32	Y32	Z32	X33	Y33	Z33	X34	Y34	Z34	X35	Y35	Z35	X36	Y36	Z36	X37	Y37	Z37	X38	Y38	Z38	X39	Y39	Z39	X40	Y40	Z40	X41	Y41	Z41	X42	Y42	Z42	X43	Y43	Z43	X44	Y44	Z44	X45	Y45	Z45	X46	Y46	Z46	X47	Y47	Z47	X48	Y48	Z48	X49	Y49	Z49	X50	Y50	Z50	X51	Y51	Z51	X52	Y52	Z52	X53	Y53	Z53	X54	Y54	Z54	X55	Y55	Z55	X56	Y56	Z56	X57	Y57	Z57

274	1.37	-355.03	1564.3	408.21	-384.96	1438.5	326.18	-289.36	947.25	428.32	-317.2	1374.9	467.19	-375.52	1184.5	536.9	-408.1	917.38	575.58	-300.07	1010	-6.199	-266.85	559.63	444.41	-225.85	672.23	437.63	-428.58	787.5	564.39	-388.94	731.51	572.73	-435.78	1062.8	555.38	-456.38	1339.8	413.23	-249.97	648.74	132.84	-315.93	739.57	477.96	-445.1	1123	89.28	-239.66	181.4	333.68	-153.31	38.585	293.35	-291.04	648.46	465.75	-184.58	32.781	381.61	-245.13	459.95	427.12	-214.2	369.93	341.43	-224.68	277.34	339.73	-321.01	638.12	102.31	-234.63	273.04	410.85	-344.37	1441.1	148.46	-415.05	1126.6	12.607	-290.92	892.1	-0.94271	-307.77	549.24	111.33	-252.87	1355.4	302.83	-344.75	338.97	178.3	-476.68	956.99	231.29	-485.52	1132.4	286.5	-475.64	962.77	336.26	-356.26	783.53	533.62	-333.17	734.98	100.16	-354.51	1580.8	270.49	-315.07	441.01	123.01	-509.05	251.21	181.33	-427.89	296.89	180.35	-100.68	33.244	318.38	-710.45	252	201.5	-171.24	1596.6	378.78	-444.93	324.77	116.67	-616.53	219.63	237.35	-309.87	941.69	125.14	-228.75	923.6	41.976	-649.68	242.72	153.63	-457.19	1044.4	461.73	-600.73	86.287	215.26	-568.21	65.226	193.36	-305.64	80.538	371.37	-280.09	97.203	285.27	-613.37	108.51	136.87	-378.61	1254.1	39.026	-209.45	873.36	-4.4804	-357.41	34.328	329.83
275	1.375	-348.71	1565.5	408.41	-378.74	1439.8	326.62	-283.22	948.22	428.88	-310.91	1376.2	467.3	-367.09	1185.7	537.25	-397.67	918.5	576.21	-296.07	1010.9	-5.6207	-264.2	559.93	444.84	-222.2	671.93	437.99	-416.94	788.53	565.49	-377.02	732.82	573.47	-426.5	1063.7	556.43	-449.96	1340.9	414.18	-241	651.73	132.71	-311.16	740.46	478.15	-440.64	1124.4	89.658	-239.42	181.23	333.79	-153.34	38.655	293.45	-287.36	648.91	466.07	-184.55	32.679	381.77	-243.53	459.83	427.51	-213.38	369.78	341.86	-223.91	277.28	339.86	-311.74	639.92	102.52	-234	272.67	411.27	-338.8	1442.2	148.73	-410.59	1128	13.225	-287.37	892.65	-0.67666	-297.03	551.36	111.45	-247.04	1356.7	303.06	-331.38	341.04	178.5	-470.79	958.51	231.82	-479.45	1133.6	287.17	-469.6	964.32	336.91	-345	784.69	534.41	-325.74	736.57	100.44	-347.85	1582.5	270.86	-302.44	443.09	123	-495.19	252.77	181.68	-414.28	298.28	180.85	-100.69	33.201	318.46	-696.93	252.02	202.25	-164.64	1597.4	379.43	-431.62	326.71	117.18	-602.35	220.78	238.07	-303.92	943.4	125.5	-225.16	923.99	42.733	-635.87	243.47	154.32	-449.5	1045	463.03	-585.32	87.605	215.72	-552.67	67.134	193.63	-305.58	80.52	371.52	-280.05	97.353	285.38	-598.23	109.66	137.3	-373.8	1255.4	39.486	-206.15	873.61	-3.6485	-357.45	34.341	329.79
276	1.38	-342.29	1567.1	408.75	-372.57	1441	326.85	-277.39	949.28	429.42	-304.52	1377.8	467.53	-359.02	1186.8	537.83	-387.03	919.39	577.06	-292.17	1011.7	-5.2928	-261.95	560.13	445.28	-218.6	671.71	438.44	-405.48	789.35	566.53	-365.04	734.06	574.28	-417.27	1064.4	557.86	-443.55	1342.1	414.92	-231.81	654.65	132.6	-306.97	741.16	478.46	-436.29	1125.7	90.083	-239.11	181.07	333.87	-153.34	38.738	293.58	-283.81	649.42	466.43	-184.53	32.642	381.92	-242.37	459.82	428	-212.38	369.59	342.25	-223.47	277.18	340.09	-302.44	641.59	102.71	-233.91	272.41	411.87	-333.43	1443.5	148.97	-406.26	1129.1	13.98	-283.74	893.46	-0.45029	-286.27	553.42	111.48	-241.06	1358.2	303.17	-317.98	343.13	178.48	-464.72	959.74	232.35	-473.25	1134.9	287.74	-463.39	965.47	337.54	-333.89	786.64	534.97	-318.18	738.09	100.76	-341.42	1584.2	270.98	-289.79	445.33	123.24	-481.12	254.03	182.07	-400.54	299.73	181.16	-100.64	33.062	318.54	-683.14	251.81	202.77	-158.05	1598.2	379.82	-418.21	328.53	117.69	-587.98	221.42	238.69	-297.75	944.86	126	-221.6	924.3	43.466	-621.9	243.96	154.86	-441.64	1045.7	464.65	-569.57	88.608	216.28	-536.48	68.528	194.03	-305.58	80.588	371.71	-279.99	97.437	285.5	-582.57	110.72	138.07	-368.88	1256.5	39.717	-202.44	873.75	-2.5665	-357.54	34.311	329.67
277	1.385	-335.74	1568.5	409.18	-366.44	1442.3	327.13	-271.61	950.29	430.1	-298.07	1379.1	467.71	-350.74	1188.1	538.31	-376.5	920.74	577.87	-288.18	1012.4	-4.6184	-259.59	560.3	445.81	-215.33	671.33	438.79	-393.71	790.11	567.42	-353	735.54	575.01	-408.76	1065.5	559.37	-437.31	1343.3	415.67	-222.76	657.53	132.47	-303.06	741.79	479.22	-431.76	1127	90.585	-238.78	181.18	333.97	-153.36	38.754	293.64	-280.25	650.18	467.11	-184.47	32.605	382.01	-240.82	459.81	428.37	-211.66	369.47	342.49	-223.29	276.97	340.35	-293.43	643.39	102.98	-233.64	272.22	412.27	-328.13	1444.7	149.13	-401.81	1130.3	14.68	-280.35	894.26	-0.09775	-275.59	555.57	111.64	-234.86	1359.5	303.2	-304.33	345.16	178.41	-458.54	961.09	232.85	-467.15	1136	288.43	-457.49	966.71	337.98	-322.3	788.67	535.34	-310.47	739.64	101.06	-334.98	1585.6	271.25	-277.16	447.69	123.49	-466.84	254.88	182.26	-386.42	301.42	181.18	-100.63	32.918	318.57	-669.18	251.15	203.35	-151.32	1598.9	380.14	-404.92	330.36	118.06	-573.81	221.82	239.55	-291.43	946.34	126.51	-218.51	924.68	44.254	-607.44	243.77	155.88	-433.35	1046.5	466.02	-553.49	89.312	217.33	-519.83	69.428	194.9	-305.56	80.692	371.87	-279.93	97.505	285.6	-566.62	111.37	138.89	-363.93	1257.5	39.922	-199.09	873.96	-1.6668	-357.55	34.508	329.82
